# xmcd
#
# Track frame offsets:
#	150
#	15912
#	33890
#	48037
#	65488
#	87988
#	104896
#	122577
#	132416
#	147474
#
# Disc length: 2187 seconds
#
# Revision: 0
# Processed by: cddbd v1.5.2PL0 Copyright (c) Steve Scherf et al.
# Submitted via: EasyCDDAExtractor 12.0.4.1
#
DISCID=8508890a
DTITLE=Various Artist - Fat Festival
DYEAR=1900
DGENRE=Pop
TTITLE0=Apartment คุณต้ิอม - ไม่หรอกครับ(Hip-Hop Version)
TTITLE1=Sqweez Marathon - ยาเวลา(Original Version)
TTITLE2=Lemon Soup+Yarinda - กลับสู่ที่เดิม/Easy(Original Version)
TTITLE3=Lipseter(Lipta+Jetseter) - Suprise(Original Version)
TTITLE4=เอิ้น พิยะดา Feat. Scrubb - ยังอยากรู้ (สองเรา Version)
TTITLE5=Apartment คุณต้ิอม - ไม่หรอกครับ(Acoustic Version)
TTITLE6=Sqweez Marathon - ยาเวลา(Acoustic Version)
TTITLE7=Lemon Soup+Yarinda - กลับสู่ที่เดิม/Easy(Demix Version)
TTITLE8=Lipseter(Lipta+Jetseter) - Suprise(Chill Mix Version)
TTITLE9=เอิ้น พิยะดา Feat. Scrubb - ยังอยากรู้ (สองเรา Version)
EXTD=
EXTT0=
EXTT1=
EXTT2=
EXTT3=
EXTT4=
EXTT5=
EXTT6=
EXTT7=
EXTT8=
EXTT9=
PLAYORDER=
